# xmcd
#
# Track frame offsets:
#       150
#       1292
#       20546
#       35583
#       78735
#       90741
#       110237
#       126127
#       145548
#       164704
#       177588
#       208792
#
# Disc length: 3189 seconds
#
# Revision: 1
# Processed by: cddbd v1.5.1PL2 Copyright (c) Steve Scherf et al.
# Submitted via: MusiCat 1.1
#
DISCID=a90c730c
DTITLE=Smokin' Joe Kubek Band - My Heart's In Texas
DYEAR=1900
DGENRE=
TTITLE0=Introduction
TTITLE1=Burnin' To The Ground
TTITLE2=I Saw It Coming
TTITLE3=Where I Want To Be
TTITLE4=My Heart's In Texas
TTITLE5=Tell Me Why
TTITLE6=Better Be Getting It On
TTITLE7=Make It Right
TTITLE8=She's Too Busy
TTITLE9=Boogie On Down
TTITLE10=That's Alright
TTITLE11=Healthy Mama
EXTD=\n\nRecorded Live at J and J Blues Bar, Ft. Worth, TX 12/31/05\n
EXTT0=
EXTT1=
EXTT2=
EXTT3=
EXTT4=
EXTT5=
EXTT6=
EXTT7=
EXTT8=
EXTT9=
EXTT10=
EXTT11=
PLAYORDER=
